<?xml version="1.0" ?><svg data-name="004_ROMANTIC" height="24" id="_004_ROMANTIC" viewBox="0 0 24 24" width="24" xmlns="http://www.w3.org/2000/svg"><title/><path d="M12,21.373a1,1,0,0,1-.00291-2c.749-.0371,3.9238-2.0786,6.1406-5.1655,1.3252-1.8457,2.7305-4.6557,1.9004-7.5596a3.642,3.642,0,0,0-1.9805-2.3032,3.58864,3.58864,0,0,0-2.9863-.0366,1,1,0,0,1-.8262-1.8213,5.58257,5.58257,0,0,1,4.6524.0425,5.64437,5.64437,0,0,1,3.0644,3.5688c1.0899,3.8174-.7324,7.3379-2.4531,9.6197C17.27639,18.6772,13.69729,21.373,12,21.373Z" style="fill:#333"/><path d="M12,21.3999a.99978.99978,0,0,1-1-1V7.7813A3.851,3.851,0,0,0,9.69529,4.7827a3.50277,3.50277,0,0,0-3.3086-.6103,3.65114,3.65114,0,0,0-2.4248,2.4751c-1.1348,3.9697,1.8203,8.2036,4.9629,10.8422a1,1,0,0,1-1.2852,1.5323c-3.624-3.042-6.998-8.0347-5.6015-12.9239a5.65088,5.65088,0,0,1,3.7461-3.833,5.54036,5.54036,0,0,1,5.1689.9629A5.78385,5.78385,0,0,1,13,7.7813V20.3999A.99979.99979,0,0,1,12,21.3999Z" style="fill:#333"/></svg>